<svg width="171" height="50" fill="none" xmlns="http://www.w3.org/2000/svg"><rect width="170.37" height="50" rx="4" fill="#25353C"/><path d="M13.886 9.549c-.364.385-.58.982-.58 1.756v27.652c0 .775.216 1.371.58 1.756l.093.09 15.495-15.49v-.365L13.979 9.458l-.093.09z" fill="url(#paint0_linear)"/><path d="M34.638 30.479l-5.164-5.165v-.366l5.165-5.163.117.066 6.12 3.476c1.747.992 1.747 2.617 0 3.61l-6.12 3.476-.118.066z" fill="url(#paint1_linear)"/><path d="M34.756 30.412l-5.283-5.281-15.587 15.582c.575.61 1.527.685 2.599.078l18.27-10.379z" fill="url(#paint2_linear)"/><path d="M34.756 19.85L16.485 9.472c-1.072-.609-2.024-.532-2.6.078l15.589 15.582 5.282-5.282z" fill="url(#paint3_linear)"/><path opacity=".2" d="M34.64 30.296L16.484 40.608c-1.016.577-1.924.538-2.507.014l-.092.093.092.09c.583.525 1.491.563 2.507-.014l18.27-10.378-.116-.117z" fill="#000"/><path opacity=".12" d="M13.886 40.53c-.364-.385-.58-.982-.58-1.756v.182c0 .774.216 1.372.58 1.757l.093-.093-.093-.09zM40.876 26.754l-6.237 3.542.117.116 6.12-3.476c.874-.496 1.31-1.15 1.31-1.804-.074.592-.519 1.17-1.31 1.622z" fill="#000"/><path opacity=".25" d="M16.485 9.655l24.39 13.853c.794.45 1.237 1.03 1.311 1.623 0-.654-.436-1.31-1.31-1.805L16.485 9.472c-1.748-.992-3.178-.167-3.178 1.833v.183c0-2 1.43-2.826 3.178-1.833z" fill="#fff"/><path d="M86.053 27.319c-2.941 0-5.34 2.237-5.34 5.317 0 3.062 2.399 5.318 5.34 5.318 2.943 0 5.34-2.256 5.34-5.318 0-3.08-2.398-5.317-5.34-5.317zm0 8.542c-1.612 0-3.002-1.33-3.002-3.223 0-1.914 1.391-3.224 3.002-3.224 1.612 0 3.002 1.31 3.002 3.224 0 1.893-1.39 3.223-3.002 3.223zm-11.65-8.542c-2.94 0-5.339 2.237-5.339 5.317 0 3.062 2.398 5.318 5.34 5.318 2.943 0 5.34-2.256 5.34-5.318 0-3.08-2.397-5.317-5.34-5.317zm0 8.542c-1.611 0-3-1.33-3-3.223 0-1.914 1.39-3.224 3-3.224 1.613 0 3.003 1.31 3.003 3.224 0 1.893-1.39 3.223-3.002 3.223zm-13.855-6.91v2.256h5.4c-.16 1.27-.583 2.196-1.229 2.84-.785.785-2.014 1.651-4.17 1.651-3.325 0-5.924-2.679-5.924-6.002 0-3.324 2.599-6.003 5.923-6.003 1.794 0 3.103.705 4.07 1.612l1.592-1.592c-1.35-1.289-3.143-2.275-5.662-2.275-4.554 0-8.382 3.706-8.382 8.258s3.828 8.258 8.382 8.258c2.458 0 4.313-.806 5.762-2.317 1.491-1.49 1.955-3.586 1.955-5.277 0-.523-.04-1.007-.121-1.41h-7.596v.002zm56.668 1.752c-.442-1.187-1.793-3.384-4.553-3.384-2.741 0-5.018 2.155-5.018 5.317 0 2.981 2.257 5.318 5.279 5.318 2.438 0 3.848-1.49 4.434-2.357l-1.814-1.209c-.604.887-1.431 1.47-2.62 1.47-1.188 0-2.035-.543-2.579-1.611l7.113-2.94-.242-.604zm-7.254 1.773c-.06-2.055 1.592-3.102 2.782-3.102.927 0 1.712.464 1.975 1.128l-4.757 1.974zm-5.782 5.157h2.336v-15.63h-2.336v15.63zm-3.83-9.125h-.08c-.524-.625-1.532-1.189-2.8-1.189-2.66 0-5.098 2.337-5.098 5.339 0 2.98 2.438 5.297 5.098 5.297 1.27 0 2.276-.564 2.8-1.208h.08v.766c0 2.034-1.088 3.122-2.84 3.122-1.43 0-2.318-1.027-2.68-1.893l-2.035.846c.584 1.41 2.135 3.142 4.715 3.142 2.74 0 5.058-1.612 5.058-5.54v-9.547h-2.216v.865h-.002zm-2.679 7.353c-1.612 0-2.962-1.35-2.962-3.203 0-1.875 1.35-3.244 2.962-3.244 1.591 0 2.841 1.37 2.841 3.244 0 1.853-1.25 3.203-2.84 3.203zm30.494-13.858h-5.592v15.63h2.333V31.71h3.258c2.587 0 5.131-1.871 5.131-4.853 0-2.982-2.543-4.855-5.13-4.855zm.06 7.533h-3.319v-5.358h3.319c1.745 0 2.736 1.444 2.736 2.68 0 1.21-.991 2.678-2.736 2.678zm14.424-2.245c-1.69 0-3.44.744-4.164 2.393l2.071.864c.443-.863 1.269-1.146 2.133-1.146 1.207 0 2.434.724 2.454 2.01v.162c-.423-.242-1.328-.603-2.434-.603-2.233 0-4.506 1.227-4.506 3.518 0 2.092 1.831 3.439 3.882 3.439 1.568 0 2.434-.704 2.977-1.53h.08v1.207h2.253v-5.993c.002-2.773-2.072-4.32-4.746-4.32zm-.283 8.566c-.763 0-1.83-.382-1.83-1.328 0-1.206 1.329-1.669 2.476-1.669 1.024 0 1.508.221 2.131.523a2.83 2.83 0 01-2.777 2.474zm13.237-8.224l-2.676 6.776h-.08l-2.776-6.776h-2.514l4.163 9.47-2.373 5.27h2.433l6.418-14.74h-2.595zm-21.02 10h2.333v-15.63h-2.333v15.63zM53.507 17.97h-.922v-2.515h.734c.65-.559.967-1.515.954-2.87V8.875h5.01v6.58h.839v2.515H59.2v-1.593h-5.692v1.591h-.001zm1.73-5.384c.014 1.186-.224 2.144-.712 2.87h3.793V9.8h-3.081v2.787zM67.641 15.409c-.738.757-1.654 1.136-2.751 1.136s-2.014-.379-2.75-1.136c-.739-.758-1.106-1.686-1.106-2.782 0-1.097.367-2.024 1.105-2.782.737-.758 1.654-1.138 2.75-1.138 1.091 0 2.007.382 2.747 1.143.74.761 1.11 1.687 1.11 2.777 0 1.096-.37 2.024-1.105 2.782zm-4.791-.63c.555.563 1.234.844 2.038.844.804 0 1.485-.282 2.039-.843.555-.563.834-1.28.834-2.153s-.279-1.59-.834-2.153c-.554-.563-1.235-.843-2.039-.843s-1.483.281-2.038.843c-.554.563-.833 1.28-.833 2.153 0 .872.279 1.59.833 2.153zM73.6 16.545c-1.105 0-2.03-.374-2.778-1.12-.748-.748-1.12-1.68-1.12-2.798s.372-2.05 1.12-2.797c.748-.748 1.673-1.122 2.778-1.122 1.13 0 2.05.41 2.756 1.226l-.671.65c-.51-.637-1.206-.954-2.085-.954-.818 0-1.509.276-2.07.828-.563.551-.845 1.275-.845 2.168 0 .892.282 1.616.845 2.168.561.551 1.252.827 2.07.827.901 0 1.67-.362 2.306-1.089l.67.67a3.636 3.636 0 01-1.29.98 3.903 3.903 0 01-1.686.363zM80.476 16.378h-.964v-6.58h-2.096v-.922h5.156v.921h-2.096v6.58zM89.193 8.876l-2.84 6.329c-.392.894-.975 1.34-1.75 1.34-.232 0-.48-.055-.746-.167l.251-.89c.162.09.33.136.503.136.224 0 .397-.044.52-.13.122-.086.234-.247.34-.477l.272-.597-2.523-5.544h1.132l1.855 4.306h.041l1.813-4.306h1.132zM90.286 16.378V8.876h5.43v7.502h-.965v-6.58h-3.502v6.58h-.963zM97.432 16.378V8.876h.965v3.216h3.752V8.876h.964v7.502h-.964v-3.385h-3.752v3.385h-.965zM110.97 15.409c-.738.757-1.654 1.136-2.751 1.136s-2.014-.379-2.751-1.136c-.738-.758-1.105-1.686-1.105-2.782 0-1.097.367-2.024 1.105-2.782.737-.758 1.654-1.138 2.751-1.138 1.09 0 2.006.382 2.746 1.143.741.761 1.111 1.687 1.111 2.777-.001 1.096-.37 2.024-1.106 2.782zm-4.79-.63c.555.563 1.234.844 2.039.844.804 0 1.484-.282 2.038-.843.556-.563.835-1.28.835-2.153s-.279-1.59-.835-2.153c-.554-.563-1.234-.843-2.038-.843-.805 0-1.484.281-2.039.843-.554.563-.833 1.28-.833 2.153 0 .872.278 1.59.833 2.153zM116.018 16.378V8.876h2.714c.588 0 1.096.194 1.526.581.431.39.646.876.646 1.462 0 .356-.093.671-.279.943a1.75 1.75 0 01-.739.619v.04a1.9 1.9 0 01.911.651c.237.308.357.664.357 1.069a1.97 1.97 0 01-.677 1.53 2.31 2.31 0 01-1.598.607h-2.861zm.963-4.286h1.75c.364 0 .656-.12.876-.362.22-.24.33-.504.33-.79 0-.286-.106-.549-.32-.785-.213-.238-.494-.356-.843-.356h-1.794v2.293h.001zm0 3.364h1.94c.371 0 .671-.13.902-.389.231-.257.345-.54.345-.848 0-.308-.119-.588-.356-.843s-.548-.383-.933-.383h-1.898v2.463z" fill="#fff"/><defs><linearGradient id="paint0_linear" x1="28.1" y1="11.013" x2="7.118" y2="32.002" gradientUnits="userSpaceOnUse"><stop stop-color="#00A0FF"/><stop offset=".007" stop-color="#00A1FF"/><stop offset=".26" stop-color="#00BEFF"/><stop offset=".512" stop-color="#00D2FF"/><stop offset=".76" stop-color="#00DFFF"/><stop offset="1" stop-color="#00E3FF"/></linearGradient><linearGradient id="paint1_linear" x1="43.15" y1="25.131" x2="12.887" y2="25.131" gradientUnits="userSpaceOnUse"><stop stop-color="#FFE000"/><stop offset=".409" stop-color="#FFBD00"/><stop offset=".775" stop-color="orange"/><stop offset="1" stop-color="#FF9C00"/></linearGradient><linearGradient id="paint2_linear" x1="31.887" y1="27.999" x2="3.432" y2="56.464" gradientUnits="userSpaceOnUse"><stop stop-color="#FF3A44"/><stop offset="1" stop-color="#C31162"/></linearGradient><linearGradient id="paint3_linear" x1="9.96" y1=".345" x2="22.666" y2="13.055" gradientUnits="userSpaceOnUse"><stop stop-color="#32A071"/><stop offset=".069" stop-color="#2DA771"/><stop offset=".476" stop-color="#15CF74"/><stop offset=".801" stop-color="#06E775"/><stop offset="1" stop-color="#00F076"/></linearGradient></defs></svg>
